# xmcd
#
# Track frame offsets:
#	150
#	20750
#	40871
#	57645
#	75651
#	90787
#	104781
#	122481
#	139903
#	156342
#	172527
#	193410
#	212053
#	231183
#	249560
#	266291
#
# Disc length: 3787 seconds
#
# Revision: 0
# Processed by: cddbd v1.5.1PL0 Copyright (c) Steve Scherf et al.
# Submitted via: dBpowerAMP V4.0
#
DISCID=da0ec910
DTITLE=mix - r&b collection disc 2
DYEAR=1900
DGENRE=
TTITLE0=where is the love
TTITLE1=rock ur body
TTITLE2=not in love
TTITLE3=too lost in you
TTITLE4=what a girl want
TTITLE5=never leave u
TTITLE6=i try
TTITLE7=let me blow ya mind
TTITLE8=dy-na-mi-tee
TTITLE9=gone till november
TTITLE10=ain't nobody
TTITLE11=video
TTITLE12=no diggity
TTITLE13=regulate
TTITLE14=all my life
TTITLE15=dilemma
EXTD=
EXTT0=
EXTT1=
EXTT2=
EXTT3=
EXTT4=
EXTT5=
EXTT6=
EXTT7=
EXTT8=
EXTT9=
EXTT10=
EXTT11=
EXTT12=
EXTT13=
EXTT14=
EXTT15=
PLAYORDER=
